<svg xmlns="http://www.w3.org/2000/svg" viewBox="0 0 1400 420" width="1400" height="420" role="img" aria-label="Sophon Finance AI automation and financial intelligence portfolio hero" text-rendering="geometricPrecision" shape-rendering="geometricPrecision">
  <defs>
    <linearGradient id="panel" x1="0" x2="1" y1="0" y2="1">
      <stop offset="0" stop-color="#ffffff"/>
      <stop offset="1" stop-color="#f7f9fc"/>
    </linearGradient>
    <linearGradient id="blue" x1="0" x2="1" y1="0" y2="1">
      <stop offset="0" stop-color="#1e64c8"/>
      <stop offset="1" stop-color="#2f80ed"/>
    </linearGradient>
    <style>
      .font { font-family: "Segoe UI", Arial, sans-serif; }
      .title { font-size: 48px; font-weight: 850; letter-spacing: 0; fill: #0b1f3a; }
      .title-blue { fill: #1e64c8; }
      .subtitle { font-size: 21px; fill: #475569; }
      .label { font-size: 15px; fill: #0b1f3a; font-weight: 760; }
      .mini { font-size: 13px; fill: #475569; }
      .line { stroke: #d8e1ec; stroke-width: 2; }
      .circuit { stroke: #1557b0; stroke-width: 2; fill: none; stroke-linecap: round; stroke-linejoin: round; }
      .soft { fill: #eef5ff; stroke: #d8e1ec; stroke-width: 1.5; }
    </style>
  </defs>

  <rect x="1" y="1" width="1398" height="418" rx="18" fill="url(#panel)" stroke="#d8e1ec" stroke-width="2"/>
  <path d="M736 234 C850 180 948 301 1050 250 C1128 211 1200 182 1372 214" fill="none" stroke="#d6e7ff" stroke-width="2"/>
  <path d="M710 264 C850 214 956 326 1062 278 C1150 238 1212 210 1374 242" fill="none" stroke="#d6e7ff" stroke-width="2"/>
  <path d="M688 294 C840 246 964 352 1074 308 C1162 273 1226 241 1376 272" fill="none" stroke="#d6e7ff" stroke-width="2"/>

  <g class="font">
    <text x="72" y="104" class="title">SFS FINANCE. <tspan class="title-blue">AUTOMATED.</tspan></text>
    <text x="72" y="160" class="title">INTELLIGENCE. <tspan class="title-blue">APPLIED.</tspan></text>
    <text x="74" y="212" class="subtitle">Leveraging AI and automation to turn financial data into actionable intelligence.</text>
  </g>

  <g class="font">
    <g transform="translate(76 272)">
      <rect x="0" y="0" width="225" height="78" rx="12" fill="#ffffff" stroke="#d8e1ec"/>
      <circle cx="38" cy="39" r="20" fill="#eef5ff" stroke="#1e64c8"/>
      <path d="M30 41 C24 34 29 25 38 26 C47 25 53 34 46 41 C50 51 39 56 33 49 C27 53 20 47 24 40" fill="none" stroke="#1e64c8" stroke-width="2"/>
      <text x="72" y="34" class="label">AI &amp; Automation</text>
      <text x="72" y="56" class="mini">Solutions</text>
    </g>
    <g transform="translate(321 272)">
      <rect x="0" y="0" width="205" height="78" rx="12" fill="#ffffff" stroke="#d8e1ec"/>
      <circle cx="38" cy="39" r="20" fill="#eef5ff" stroke="#1e64c8"/>
      <path d="M28 51 L28 38 L36 38 L36 51 M41 51 L41 30 L49 30 L49 51" fill="none" stroke="#1e64c8" stroke-width="2"/>
      <path d="M27 31 L37 24 L47 27 L56 18" fill="none" stroke="#1e64c8" stroke-width="2"/>
      <text x="72" y="34" class="label">Data-Driven</text>
      <text x="72" y="56" class="mini">Insights</text>
    </g>
    <g transform="translate(546 272)">
      <rect x="0" y="0" width="220" height="78" rx="12" fill="#ffffff" stroke="#d8e1ec"/>
      <circle cx="38" cy="39" r="20" fill="#eef5ff" stroke="#1e64c8"/>
      <path d="M26 31 L38 24 L50 31 L50 48 L38 55 L26 48 Z" fill="none" stroke="#1e64c8" stroke-width="2"/>
      <path d="M31 38 L37 44 L48 31" fill="none" stroke="#1e64c8" stroke-width="2"/>
      <text x="72" y="34" class="label">Financial Data</text>
      <text x="72" y="56" class="mini">Engineering</text>
    </g>
    <g transform="translate(786 272)">
      <rect x="0" y="0" width="180" height="78" rx="12" fill="#ffffff" stroke="#d8e1ec"/>
      <circle cx="38" cy="39" r="20" fill="#eef5ff" stroke="#1e64c8"/>
      <path d="M25 32 L38 24 L52 32 L38 40 Z M25 44 L38 52 L52 44" fill="none" stroke="#1e64c8" stroke-width="2"/>
      <text x="72" y="34" class="label">Scalable</text>
      <text x="72" y="56" class="mini">Systems</text>
    </g>
  </g>

  <g transform="translate(984 76)">
    <circle cx="124" cy="124" r="104" fill="#ffffff" stroke="#d8e1ec" stroke-width="2"/>
    <path class="circuit" d="M124 34 V74 M82 49 V83 H104 M166 49 V83 H144 M55 82 H88 M193 82 H160 M47 124 H82 M201 124 H166 M55 166 H88 M193 166 H160 M82 199 V165 H104 M166 199 V165 H144 M124 214 V174"/>
    <circle cx="124" cy="34" r="5" fill="#1e64c8"/><circle cx="82" cy="49" r="5" fill="#1e64c8"/><circle cx="166" cy="49" r="5" fill="#1e64c8"/>
    <circle cx="55" cy="82" r="5" fill="#1e64c8"/><circle cx="193" cy="82" r="5" fill="#1e64c8"/><circle cx="47" cy="124" r="5" fill="#1e64c8"/><circle cx="201" cy="124" r="5" fill="#1e64c8"/>
    <circle cx="55" cy="166" r="5" fill="#1e64c8"/><circle cx="193" cy="166" r="5" fill="#1e64c8"/><circle cx="82" cy="199" r="5" fill="#1e64c8"/><circle cx="166" cy="199" r="5" fill="#1e64c8"/><circle cx="124" cy="214" r="5" fill="#1e64c8"/>
    <rect x="84" y="84" width="80" height="80" rx="8" fill="#ffffff" stroke="#1557b0" stroke-width="3"/>
    <text x="124" y="136" text-anchor="middle" class="font" font-size="38" font-weight="850" fill="#0b1f3a">AI</text>
  </g>

  <g transform="translate(1202 92)">
    <circle cx="54" cy="54" r="42" fill="#eef5ff" stroke="#d8e1ec"/>
    <path d="M54 12 A42 42 0 0 1 96 54 H54 Z" fill="#1e64c8"/>
    <path d="M54 54 H96 A42 42 0 0 1 68 93 Z" fill="#2f80ed"/>
    <path d="M54 54 V12 A42 42 0 0 0 16 72 Z" fill="#cbd5e1"/>
  </g>

  <g transform="translate(1172 246)" class="font">
    <rect x="0" y="0" width="162" height="76" rx="10" fill="#ffffff" stroke="#d8e1ec"/>
    <rect x="22" y="20" width="40" height="7" rx="2" fill="#1e64c8"/>
    <rect x="22" y="34" width="72" height="6" rx="2" fill="#cbd5e1"/>
    <rect x="22" y="48" width="94" height="6" rx="2" fill="#cbd5e1"/>
    <rect x="132" y="17" width="8" height="42" rx="2" fill="#1e64c8"/>
    <rect x="118" y="30" width="8" height="29" rx="2" fill="#2f80ed"/>
    <rect x="104" y="41" width="8" height="18" rx="2" fill="#9cc3ff"/>
  </g>
</svg>
